<?xml version="1.0" standalone="no"?>
<!DOCTYPE svg PUBLIC "-//W3C//DTD SVG 1.1//EN" "http://www.w3.org/Graphics/SVG/1.1/DTD/svg11.dtd">
<!--Generator: Xara Designer (www.xara.com), SVG filter version: 6.1.0.16-->
<svg stroke-width="0.501" stroke-linejoin="bevel" fill-rule="evenodd" xmlns:xlink="http://www.w3.org/1999/xlink" xmlns="http://www.w3.org/2000/svg" version="1.1" overflow="visible" width="720pt" height="720pt" viewBox="0 0 720 720">
 <defs>
	</defs>
 <g id="Document" fill="none" stroke="black" font-family="Times New Roman" font-size="16" transform="scale(1 -1)">
  <g id="Spread" transform="translate(0 -720)">
   <g id="Layer 1">
    <path d="M 293.685,0 L 293.684,330.863 C 246.882,350.122 209.367,387.403 189.797,434.049 L 150.787,434.049 L 150.787,574.59 L 186.882,574.59 C 205.476,624.671 244.439,664.886 293.684,685.152 L 293.685,684.974 L 293.685,719.998 L 441.394,719.998 L 441.394,684.236 C 489.605,663.689 527.69,623.926 546.007,574.59 L 585.362,574.59 L 585.362,434.049 L 543.092,434.049 C 523.828,388.131 487.174,351.288 441.388,331.775 L 441.394,0 L 293.685,0 Z M 434.227,7.167 L 434.219,441.215 L 578.195,441.215 L 578.195,567.424 L 434.227,567.424 L 434.227,712.832 L 300.853,712.832 L 300.853,567.424 L 157.955,567.424 L 157.955,441.215 L 300.853,441.215 L 300.853,7.167 L 434.227,7.167 Z M 331.726,38.039 L 331.726,445.683 L 334.873,446.068 C 347.195,447.575 356.759,458.097 356.759,470.83 C 356.759,484.597 345.586,495.775 331.816,495.775 C 319.489,495.775 309.242,486.822 307.229,475.066 L 306.72,472.088 L 188.827,472.088 L 188.827,536.551 L 306.692,536.551 L 306.93,533.224 C 307.855,520.303 318.649,510.094 331.809,510.094 C 345.581,510.094 356.755,521.27 356.755,535.037 C 356.755,547.768 347.195,558.285 334.873,559.792 L 331.726,560.176 L 331.726,681.959 L 403.355,681.959 L 403.355,560.119 L 400.387,559.6 C 388.676,557.556 379.761,547.326 379.761,535.035 C 379.761,521.268 390.94,510.084 404.714,510.084 C 417.862,510.084 428.661,520.3 429.59,533.224 L 429.829,536.551 L 547.323,536.551 L 547.323,472.088 L 427.892,472.088 L 427.24,474.849 C 424.647,485.843 414.748,494.034 402.971,494.034 C 389.203,494.034 378.027,482.853 378.027,469.091 C 378.027,456.274 387.72,445.691 400.165,444.298 L 403.35,443.94 L 403.355,38.039 L 331.726,38.039 Z M 396.188,45.206 L 396.184,437.834 L 393.54,438.383 C 380.413,442.417 370.861,454.648 370.861,469.091 C 370.861,486.81 385.246,501.201 402.971,501.201 C 414.352,501.201 424.358,495.264 430.058,486.326 L 433.048,479.255 L 540.157,479.255 L 540.157,529.385 L 436.174,529.385 L 435.711,526.653 C 432.021,512.988 419.534,502.918 404.714,502.918 C 386.983,502.918 372.595,517.311 372.595,535.035 C 372.595,548.892 381.383,560.697 393.683,565.196 L 396.188,565.867 L 396.188,674.793 L 338.892,674.793 L 338.89,566.22 L 341.512,565.649 C 354.498,561.535 363.921,549.382 363.921,535.037 C 363.921,519.527 352.908,506.574 338.278,503.579 L 331.883,502.935 L 338.283,502.287 C 352.912,499.29 363.926,486.338 363.926,470.83 C 363.926,456.48 354.5,444.322 341.512,440.208 L 338.892,439.637 L 338.892,45.206 L 396.188,45.206 Z M 293.684,338.639 L 293.685,338.797 L 293.684,395.333 C 278.128,405.405 264.787,418.609 254.555,434.049 L 197.598,434.049 C 216.346,391.346 250.823,357.093 293.684,338.639 Z M 535.291,434.049 L 478.334,434.049 C 468.583,419.336 456.009,406.654 441.387,396.777 L 441.388,339.595 C 483.233,358.259 516.863,392.071 535.291,434.049 Z M 293.684,403.973 L 293.685,404.128 L 293.685,434.049 L 263.262,434.049 C 271.635,422.394 281.931,412.214 293.684,403.973 Z M 469.626,434.049 L 441.387,434.049 L 441.387,405.538 C 452.235,413.49 461.775,423.12 469.626,434.049 Z M 300.953,479.255 L 301.619,481.767 C 305.455,492.348 314.692,500.346 326.004,502.416 L 331.735,502.932 L 325.615,503.524 C 313.593,505.874 303.967,514.939 300.805,526.653 L 300.344,529.385 L 195.994,529.385 L 195.994,479.255 L 300.953,479.255 Z M 293.684,620.681 L 293.685,620.435 L 293.684,677.375 C 248.382,657.869 212.445,620.715 194.548,574.59 L 250.003,574.59 C 260.685,593.215 275.706,609.039 293.684,620.681 Z M 293.685,574.59 L 293.685,612.039 C 279.512,602.104 267.458,589.346 258.343,574.59 L 293.685,574.59 Z M 441.394,610.47 L 441.394,574.59 L 474.545,574.59 C 465.903,588.581 454.619,600.774 441.394,610.47 Z M 441.394,676.416 L 441.394,619.232 C 458.403,607.741 472.64,592.453 482.886,574.59 L 538.341,574.59 C 520.732,619.973 485.661,656.67 441.394,676.416 Z" stroke="none" fill="#000000" stroke-width="1.194" fill-rule="evenodd" marker-start="none" marker-end="none" stroke-miterlimit="79.8403193612775"/>
   </g>
  </g>
 </g>
</svg>
